<svg width="130" height="27" viewBox="0 0 130 27" fill="none" xmlns="http://www.w3.org/2000/svg">
<rect x="11.9443" y="2.91647" width="16.5585" height="16.5585" rx="2" transform="rotate(45 11.9443 2.91647)" fill="#246CE2" stroke="#246CE2" stroke-width="2"/>
<path d="M51.3813 20.27C50.1453 20.27 49.0233 19.988 48.0153 19.424C47.0193 18.848 46.2333 18.062 45.6573 17.066C45.0933 16.058 44.8113 14.936 44.8113 13.7C44.8113 12.464 45.0933 11.348 45.6573 10.352C46.2333 9.344 47.0193 8.558 48.0153 7.994C49.0233 7.418 50.1453 7.13 51.3813 7.13C52.6173 7.13 53.7333 7.418 54.7293 7.994C55.7373 8.558 56.5233 9.344 57.0873 10.352C57.6633 11.348 57.9513 12.464 57.9513 13.7C57.9513 14.936 57.6633 16.058 57.0873 17.066C56.5233 18.062 55.7373 18.848 54.7293 19.424C53.7333 19.988 52.6173 20.27 51.3813 20.27ZM51.3813 18.254C52.2093 18.254 52.9533 18.056 53.6133 17.66C54.2853 17.264 54.8133 16.724 55.1973 16.04C55.5813 15.344 55.7733 14.564 55.7733 13.7C55.7733 12.836 55.5813 12.062 55.1973 11.378C54.8133 10.682 54.2853 10.136 53.6133 9.74C52.9533 9.344 52.2093 9.146 51.3813 9.146C50.5533 9.146 49.8033 9.344 49.1313 9.74C48.4713 10.136 47.9493 10.682 47.5653 11.378C47.1933 12.062 47.0073 12.836 47.0073 13.7C47.0073 14.564 47.1933 15.344 47.5653 16.04C47.9493 16.724 48.4713 17.264 49.1313 17.66C49.8033 18.056 50.5533 18.254 51.3813 18.254ZM62.3045 11V12.314C62.6885 11.834 63.1505 11.468 63.6905 11.216C64.2425 10.952 64.8485 10.82 65.5085 10.82C66.3605 10.82 67.1285 11.024 67.8125 11.432C68.4965 11.84 69.0305 12.404 69.4145 13.124C69.8105 13.832 70.0085 14.624 70.0085 15.5C70.0085 16.376 69.8105 17.174 69.4145 17.894C69.0305 18.602 68.4905 19.16 67.7945 19.568C67.1105 19.976 66.3485 20.18 65.5085 20.18C64.8965 20.18 64.3265 20.066 63.7985 19.838C63.2825 19.598 62.8325 19.268 62.4485 18.848V23.6H60.5585V11H62.3045ZM65.2385 18.452C65.7665 18.452 66.2465 18.326 66.6785 18.074C67.1105 17.81 67.4525 17.456 67.7045 17.012C67.9565 16.556 68.0825 16.052 68.0825 15.5C68.0825 14.948 67.9565 14.45 67.7045 14.006C67.4525 13.55 67.1105 13.196 66.6785 12.944C66.2465 12.68 65.7665 12.548 65.2385 12.548C64.7105 12.548 64.2305 12.68 63.7985 12.944C63.3665 13.196 63.0245 13.55 62.7725 14.006C62.5325 14.45 62.4125 14.948 62.4125 15.5C62.4125 16.052 62.5325 16.556 62.7725 17.012C63.0245 17.456 63.3665 17.81 63.7985 18.074C64.2305 18.326 64.7105 18.452 65.2385 18.452ZM76.5084 20.18C75.5604 20.18 74.7144 19.982 73.9704 19.586C73.2384 19.178 72.6624 18.62 72.2424 17.912C71.8344 17.204 71.6304 16.412 71.6304 15.536C71.6304 14.648 71.8464 13.85 72.2784 13.142C72.7104 12.422 73.2984 11.858 74.0424 11.45C74.7864 11.03 75.6024 10.82 76.4904 10.82C77.3664 10.82 78.1584 11.024 78.8664 11.432C79.5864 11.828 80.1504 12.38 80.5584 13.088C80.9664 13.784 81.1704 14.564 81.1704 15.428C81.1704 15.596 81.1584 15.824 81.1344 16.112H73.5024C73.6104 16.808 73.9464 17.396 74.5104 17.876C75.0744 18.344 75.7704 18.578 76.5984 18.578C77.1144 18.578 77.5884 18.464 78.0204 18.236C78.4644 18.008 78.7824 17.702 78.9744 17.318H80.8464C80.7264 17.846 80.4624 18.326 80.0544 18.758C79.6584 19.19 79.1484 19.538 78.5244 19.802C77.9124 20.054 77.2404 20.18 76.5084 20.18ZM79.2804 14.582C79.1124 13.934 78.7764 13.418 78.2724 13.034C77.7684 12.65 77.1684 12.458 76.4724 12.458C75.7644 12.458 75.1404 12.656 74.6004 13.052C74.0604 13.436 73.7124 13.946 73.5564 14.582H79.2804ZM85.2264 11V12.26C85.5864 11.804 86.0364 11.45 86.5764 11.198C87.1284 10.946 87.7344 10.82 88.3944 10.82C89.1624 10.82 89.8404 10.994 90.4284 11.342C91.0284 11.678 91.4904 12.164 91.8144 12.8C92.1384 13.436 92.3004 14.174 92.3004 15.014V20H90.3924V15.302C90.3924 14.438 90.1884 13.766 89.7804 13.286C89.3724 12.806 88.8084 12.566 88.0884 12.566C87.5724 12.566 87.1044 12.686 86.6844 12.926C86.2764 13.166 85.9524 13.496 85.7124 13.916C85.4844 14.324 85.3704 14.786 85.3704 15.302V20H83.4804V11H85.2264ZM103.481 7.4H106.361L111.329 20H108.989L107.819 16.922H101.951L100.781 20H98.5132L103.481 7.4ZM107.153 15.176L104.885 9.272H104.849L102.617 15.176H107.153ZM114.969 11V12.26C115.305 11.804 115.713 11.45 116.193 11.198C116.685 10.946 117.213 10.82 117.777 10.82C118.413 10.82 118.977 10.958 119.469 11.234C119.973 11.51 120.369 11.906 120.657 12.422C120.945 12.926 121.089 13.514 121.089 14.186V14.726H119.199V14.258C119.199 13.718 119.043 13.304 118.731 13.016C118.419 12.728 117.993 12.584 117.453 12.584C117.033 12.584 116.643 12.698 116.283 12.926C115.935 13.154 115.653 13.466 115.437 13.862C115.221 14.246 115.113 14.672 115.113 15.14V20H113.223V11H114.969ZM127.12 20.18C124.9 20.18 123.79 19.19 123.79 17.21V12.728H121.666V11H123.016C123.292 11 123.502 10.928 123.646 10.784C123.79 10.628 123.862 10.412 123.862 10.136V8.84H125.68V11H129.28V12.728H125.68V16.994C125.68 17.522 125.794 17.9 126.022 18.128C126.25 18.344 126.64 18.452 127.192 18.452C127.936 18.452 128.632 18.368 129.28 18.2V19.91C128.944 19.982 128.572 20.042 128.164 20.09C127.768 20.15 127.42 20.18 127.12 20.18Z" fill="white"/>
<rect x="23.877" y="2.91647" width="16.5585" height="16.5585" rx="2" transform="rotate(45 23.877 2.91647)" fill="black" stroke="#246CE2" stroke-width="2"/>
</svg>
